# xmcd
# 
# Track frame offsets:
#     183
#     21010
#     35120
#     54808
#     71788
#     83633
#     107270
#     122353
#     139938
#     151060
# 
# Disc length: 2237
# 
# Revision: 2
# Processed by: cddbd v1.5.2PL0 Copyright (c) Steve Scherf et al.
# Submitted via: BonkEnc v1.0.5
# 
DISCID=7308bb0a
DTITLE=Roy Herrington Band - All Electric
DYEAR=0
DGENRE=
TTITLE0=I Just Wanna
TTITLE1=Fish'n Chips
TTITLE2=Closer To You
TTITLE3=Honey B
TTITLE4=Contraflow
TTITLE5=Welcome To New York
TTITLE6=Saturday Night
TTITLE7=Look My Way
TTITLE8=All Electric
TTITLE9=Wind Cries Mary
EXTD=
EXTT0=
EXTT1=
EXTT2=
EXTT3=
EXTT4=
EXTT5=
EXTT6=
EXTT7=
EXTT8=
EXTT9=
PLAYORDER=
